<?xml version="1.0" encoding="utf-8"?>
<!-- Generator: Adobe Illustrator 22.0.1, SVG Export Plug-In . SVG Version: 6.00 Build 0)  -->
<svg version="1.1" id="Layer_1" xmlns="http://www.w3.org/2000/svg" xmlns:xlink="http://www.w3.org/1999/xlink" x="0px" y="0px"
	 viewBox="0 0 1000 500" style="enable-background:new 0 0 1000 500;" xml:space="preserve">
<style type="text/css">
	.st0{fill:#1B2C63;}
</style>
<path class="st0" d="M167.6,297.2h-24.2L117.5,252l-6.3-12.6h-0.1l0.5,15.7v42.1H92.4v-83.5h24.2l25.9,45.2l6.3,12.7h0.1l-0.5-15.7
	v-42.1h19.2V297.2z"/>
<path class="st0" d="M237.5,271.8h-43.1c0.7,4,2.1,6.9,4.4,8.7c2.2,1.9,5.2,2.8,8.9,2.8c3.1,0,5.7-0.6,7.7-1.8c2-1.2,3.3-2.9,4-5.2
	l17.5,5.6c-1.8,5.4-5.2,9.5-10.3,12.3c-5.1,2.8-11.4,4.2-18.8,4.2c-11.1,0-19.5-2.9-25.4-8.6c-5.9-5.7-8.8-13.8-8.8-24.3
	c0-10.5,2.9-18.6,8.6-24.3c5.7-5.7,13.9-8.6,24.4-8.6c10.2,0,18,2.8,23.5,8.4c5.4,5.6,8.2,13.5,8.2,23.6
	C238.1,267.6,237.9,269.9,237.5,271.8z M194.2,260.1H218c-1-8.3-4.9-12.4-11.6-12.4C199.5,247.7,195.5,251.9,194.2,260.1z"/>
<path class="st0" d="M309.5,284.4l-1.6,12c-2.5,1.3-5.3,2-8.6,2c-9.1,0-14.6-3.2-16.3-9.7c-3.8,6.5-11.3,9.7-22.5,9.7
	c-6.3,0-11.2-1.3-14.6-4.1c-3.4-2.7-5.1-6.6-5.1-11.8c0-5.4,1.9-9.8,5.8-13.1c3.8-3.3,10.1-5.9,18.9-7.7l14.3-2.8v-2.3
	c0-2.9-0.8-5.1-2.4-6.8c-1.6-1.7-3.8-2.5-6.6-2.5c-3.2,0-5.8,0.8-7.8,2.3c-2,1.5-3.3,4-3.9,7.5l-17.5-5.1c1.1-6.2,4.1-10.9,9.1-14.4
	c5-3.4,11.7-5.1,20.1-5.1c9.9,0,17.4,2,22.5,6.1c5.1,4,7.7,10.1,7.7,18.2v23c0,3.3,1.5,4.9,4.6,4.9
	C307.2,284.9,308.5,284.8,309.5,284.4z M276.3,282.1c2.4-1.6,3.5-3.8,3.5-6.5v-5.4l-10.2,2.4c-2.7,0.7-4.6,1.5-5.8,2.5
	s-1.7,2.3-1.7,4.1c0,1.8,0.6,3.1,1.6,4c1.1,0.9,2.6,1.4,4.6,1.4C271.2,284.6,273.9,283.7,276.3,282.1z"/>
<path class="st0" d="M359.5,234.1l-2.3,18.2c-0.8-0.5-2-1-3.4-1.3c-1.4-0.4-2.9-0.6-4.6-0.6c-4.1,0-7.4,1.3-10.1,3.9
	c-2.7,2.6-4,6.3-4,11.1v31.9h-21.5v-63.3h19l0.9,13.7c1.5-4.8,3.9-8.5,7.1-11.1c3.2-2.6,7.3-3.9,12.1-3.9
	C355.6,232.7,357.9,233.1,359.5,234.1z"/>
<path class="st0" d="M359.4,287.3l11.1-12.1c3.6,6,9.9,9,18.7,9c2.9,0,5.3-0.4,7-1.2c1.7-0.8,2.5-1.9,2.5-3.2c0-1.2-0.9-2.2-2.6-3.1
	c-1.7-0.9-4.7-1.7-8.9-2.6c-9.5-1.9-16.2-4.4-20.2-7.6c-4-3.2-6-7.5-6-12.8c0-3.6,1.1-7,3.4-10.2c2.3-3.2,5.7-5.8,10.3-7.8
	s10.2-3,16.8-3c7.3,0,13.2,1,17.8,3s8.3,5,11.2,8.9l-11.1,10.9c-2-2.9-4.4-5.1-7.2-6.5c-2.8-1.3-6.1-2-10-2c-3,0-5.4,0.5-7.1,1.4
	c-1.7,0.9-2.5,2.1-2.5,3.4c0,1.3,0.9,2.3,2.6,3.2c1.7,0.9,4.7,1.8,9,2.6c9.3,1.6,16,4,20.1,7.1c4.1,3.2,6.1,7.5,6.1,13
	c0,6.2-2.6,11.2-7.7,15c-5.1,3.8-12.6,5.8-22.4,5.8C375.8,298.5,365.5,294.8,359.4,287.3z"/>
<path class="st0" d="M483.2,238.5c4,3.9,5.9,9.4,5.9,16.6v42.1h-21.5V261c0-8-3-12-9-12c-3.4,0-6.1,1.2-8.2,3.7
	c-2.1,2.5-3.2,6.2-3.2,11.3v33.3h-21.5v-90.1h21.5v38.3c1.9-4.2,4.5-7.4,7.9-9.5c3.4-2.2,7.4-3.2,12.1-3.2
	C473.9,232.7,479.3,234.6,483.2,238.5z"/>
<path class="st0" d="M552.7,241.3c5.9,5.8,8.8,13.9,8.8,24.2c0,10.4-2.9,18.5-8.8,24.2c-5.9,5.8-14.1,8.7-24.6,8.7
	c-10.5,0-18.7-2.9-24.6-8.7c-5.9-5.8-8.8-13.9-8.8-24.2c0-10.4,2.9-18.5,8.8-24.2s14.1-8.7,24.6-8.7
	C538.6,232.7,546.8,235.6,552.7,241.3z M519.1,252.2c-1.9,2.8-2.9,7.3-2.9,13.4c0,6.2,1,10.6,2.9,13.4c1.9,2.8,4.9,4.2,9,4.2
	c4.1,0,7-1.4,9-4.2s2.9-7.3,2.9-13.4c0-6.2-1-10.6-2.9-13.4c-1.9-2.8-4.9-4.2-9-4.2C524,248,521,249.4,519.1,252.2z"/>
<path class="st0" d="M612.9,234.1l-2.3,18.2c-0.8-0.5-2-1-3.4-1.3c-1.4-0.4-2.9-0.6-4.6-0.6c-4.1,0-7.4,1.3-10.1,3.9
	c-2.7,2.6-4,6.3-4,11.1v31.9H567v-63.3h19l0.9,13.7c1.5-4.8,3.9-8.5,7.1-11.1s7.3-3.9,12.1-3.9C609,232.7,611.2,233.1,612.9,234.1z"
	/>
<path class="st0" d="M676.9,271.8h-43.1c0.7,4,2.1,6.9,4.4,8.7c2.2,1.9,5.2,2.8,8.9,2.8c3.1,0,5.7-0.6,7.7-1.8c2-1.2,3.3-2.9,4-5.2
	l17.5,5.6c-1.8,5.4-5.2,9.5-10.3,12.3c-5.1,2.8-11.4,4.2-18.8,4.2c-11.1,0-19.5-2.9-25.4-8.6c-5.9-5.7-8.8-13.8-8.8-24.3
	c0-10.5,2.9-18.6,8.6-24.3c5.7-5.7,13.9-8.6,24.4-8.6c10.2,0,18,2.8,23.5,8.4c5.4,5.6,8.2,13.5,8.2,23.6
	C677.6,267.6,677.4,269.9,676.9,271.8z M633.7,260.1h23.8c-1-8.3-4.9-12.4-11.6-12.4C639,247.7,634.9,251.9,633.7,260.1z"/>
<g>
	<path class="st0" d="M725.2,295.5c-5.9-3.3-10.4-8.2-13.7-14.7c-1.8-3.5-3-7.3-3.9-11.5l-24.1,29.2h48.4
		C729.5,297.7,727.3,296.7,725.2,295.5z"/>
	<path class="st0" d="M758,298.5h11.9l-0.6-9.1C766.5,293.6,762.8,296.7,758,298.5z"/>
	<polygon class="st0" points="852.1,298.5 872.1,298.5 872.1,260.9 872.7,235.3 872.5,235.3 	"/>
	<path class="st0" d="M764.9,199.5l-12.1,15.2c7.4,0.5,13.5,2.1,18.4,4.9c5.8,3.4,10.4,8.8,13.8,16.3l-20.1,8
		c-1-4.1-2.9-7.2-5.7-9.2c-2.8-2-6.2-3-10.4-3c-6.4,0-11.3,2.2-14.7,6.6c-3.4,4.4-5.1,10.8-5.1,19.4c0,17.5,6.8,26.3,20.5,26.3
		c5.1,0,9.3-1.2,12.5-3.5c3.2-2.4,4.7-5.8,4.7-10.2v-1.3h-20.8v-14.7h39.2v44.4h9.6v-82.7h31l13.2,42.5l4.7,17.7h0.3l4.8-17.6
		l13-42.6h29.7v82.7h16.3v-99H764.9z"/>
	<polygon class="st0" points="834,298.5 813.6,235.3 813.4,235.3 814,260.9 814,298.5 	"/>
</g>
</svg>
